
        <svg xmlns="http://www.w3.org/2000/svg" xmlns:xlink="http://www.w3.org/1999/xlink" version="1.1" width="3170.4545454545455" height="1132.232077726506" viewBox="0 0 3170.4545454545455 1132.232077726506">
			
			<g transform="scale(8.522727272727273) translate(10, 10)">
				<defs id="SvgjsDefs8408"/><g id="SvgjsG8409" featureKey="symbolFeature-0" transform="matrix(1.1930886011527884,0,0,1.1930886011527884,-3.6544303420939084,-3.2792038655251967)" fill="#000"><path xmlns="http://www.w3.org/2000/svg" d="M51.558,44.756c-0.12-0.04-0.242-0.046-0.366-0.023c-0.23,0.044-0.648,0.149-1.192,0.402  c-0.544-0.253-0.962-0.358-1.191-0.401c-0.124-0.023-0.247-0.017-0.366,0.023c-1.857,0.617-3.243,3.078-3.243,3.078  s0.538,0.705,2.537-0.159c0.506-0.219,1.071-0.245,1.597-0.082c0.216,0.067,0.45,0.117,0.665,0.115  c0.215,0.001,0.45-0.049,0.665-0.115c0.526-0.163,1.091-0.136,1.597,0.082c2.001,0.864,2.539,0.159,2.539,0.159  S53.414,45.374,51.558,44.756z"/><path xmlns="http://www.w3.org/2000/svg" d="M51.236,48.512c0,0-0.648,0.358-1.236,0.323c-0.588,0.035-1.236-0.323-1.236-0.323c-2.083-1.041-3.164,0.323-3.164,0.323  s1.482,2.882,4.4,2.882s4.4-2.882,4.4-2.882S53.319,47.471,51.236,48.512z"/><path xmlns="http://www.w3.org/2000/svg" d="M89.184,83.274c-0.823-1.283-2.122-2.186-3.611-2.51L73.42,78.121c0,0-10.039,6.471-22.792,9.054  c-0.412,0.084-0.844,0.084-1.257,0c-12.753-2.583-22.792-9.054-22.792-9.054l-12.153,2.643c-1.489,0.324-2.788,1.227-3.611,2.51  l-2.567,4.003c-0.145,0.227-0.022,0.529,0.241,0.59l40.536,9.275c0.641,0.147,1.307,0.147,1.948,0l40.536-9.275  c0.263-0.06,0.386-0.363,0.241-0.59L89.184,83.274z"/><polygon xmlns="http://www.w3.org/2000/svg" points="67.649,18.843 32.351,18.843 31.557,22.465 68.443,22.465 "/><path xmlns="http://www.w3.org/2000/svg" d="M64.884,6.226c-0.374-1.705-1.846-2.946-3.59-3.025L52.712,2.81c-1.807-0.082-3.617-0.082-5.424,0l-8.582,0.391  c-1.744,0.079-3.216,1.321-3.59,3.025l-2.509,11.448h34.787L64.884,6.226z"/><path xmlns="http://www.w3.org/2000/svg" d="M96.445,35.929L68.7,23.635l0-0.002H31.3l0,0.002L3.555,35.929c-0.299,0.133-0.492,0.429-0.492,0.757v0.853  c0,0.219,0.177,0.396,0.396,0.396H27.34l-1.14,10.2h5.157l0.243,1.7h6.061c0.916,1.418,2.094,2.706,3.575,3.527  c0.117,1.143,0.538,5.791,0.246,10.475l-1.844,0.353c-0.137,0.026-0.242,0.128-0.266,0.265c-0.185,1.054-1.028,5.612-2.14,7.831  c-0.173,0.345-0.452,0.62-0.796,0.796l-8.257,4.251c0,0,10.032,6.322,21.53,7.616c0.192,0.022,0.388,0.022,0.58,0  c11.5-1.294,21.531-7.616,21.531-7.616l-8.257-4.251c-0.344-0.177-0.623-0.452-0.796-0.797c-1.112-2.22-1.955-6.776-2.14-7.83  c-0.024-0.137-0.129-0.239-0.266-0.265l-1.844-0.354c-0.292-4.686,0.13-9.336,0.246-10.477c1.479-0.825,2.656-2.11,3.571-3.526H68.4  l0.243-1.7H73.8l-1.14-10.2h23.881c0.219,0,0.396-0.177,0.396-0.396v-0.853C96.937,36.359,96.744,36.062,96.445,35.929z M50,67.335  c-2.72,0.076-5.588-0.841-7.658-1.698c0.488-4.645,0.147-9.584-0.041-11.66l2.027,1.157c1.412,0.805,2.936,1.37,4.529,1.678  c0.379,0.073,0.761,0.109,1.142,0.109c0.382,0,0.763-0.036,1.142-0.109c1.595-0.308,3.118-0.872,4.53-1.678l2.026-1.157  c-0.189,2.076-0.529,7.015-0.041,11.661C55.587,66.494,52.72,67.411,50,67.335z M58.091,52.601l-2.915,1.664  c-1.315,0.751-2.737,1.277-4.224,1.564c-0.632,0.122-1.272,0.124-1.904,0c-1.486-0.287-2.907-0.813-4.223-1.564l-2.934-1.674  c-4.619-2.396-6.134-10.268-6.148-10.345l-0.78-4.311H50h15.039l-0.78,4.309C64.244,42.323,62.729,50.196,58.091,52.601z"/></g><g id="SvgjsG8410" featureKey="nameFeature-0" transform="matrix(1.3398295011500314,0,0,1.3398295011500314,129.32034179630054,-18.400730563327183)" fill="#000"><path d="M12.44 40 c-2.16 0 -3.72 -0.44 -5.36 -1.32 c-1.6 -0.88 -2.88 -2.12 -3.76 -3.76 c-0.88 -1.6 -1.32 -3.52 -1.32 -5.72 l0 -14.08 c0 -0.28 0.24 -0.48 0.52 -0.48 l5.2 0 c0.28 0 0.48 0.2 0.48 0.48 l0 14.08 c0 1.6 0.44 2.84 1.28 3.72 s1.6 1.32 3 1.32 s2.12 -0.44 2.92 -1.28 c0.8 -0.88 1.2 -2.16 1.2 -3.76 l0 -14.08 c0 -0.28 0.24 -0.48 0.52 -0.48 l5.2 0 c0.28 0 0.52 0.2 0.52 0.48 l0 14.08 c0 2.2 -0.44 4.12 -1.32 5.72 c-0.84 1.64 -2.12 2.88 -3.72 3.76 s-3.2 1.32 -5.36 1.32 z M27.36 40 c-0.28 0 -0.52 -0.24 -0.52 -0.52 l0 -23.96 c0 -0.28 0.24 -0.52 0.52 -0.52 l4.72 0 c0.16 0 0.32 0.08 0.44 0.2 l9.2 14.2 l0 -13.88 c0 -0.28 0.24 -0.52 0.52 -0.52 l4.92 0 c0.28 0 0.52 0.24 0.52 0.52 l0 23.96 c0 0.28 -0.24 0.52 -0.52 0.52 l-4.72 0 c-0.16 0 -0.32 -0.08 -0.44 -0.2 l-9.16 -14.12 l0 13.8 c0 0.28 -0.24 0.52 -0.52 0.52 l-4.96 0 z M52.2 40 c-0.28 0 -0.52 -0.24 -0.52 -0.52 l0 -23.96 c0 -0.28 0.24 -0.52 0.52 -0.52 l5.2 0 c0.28 0 0.52 0.24 0.52 0.52 l0 18.72 l9 0 c0.28 0 0.52 0.24 0.52 0.52 l0 4.72 c0 0.28 -0.24 0.52 -0.52 0.52 l-14.72 0 z M71.44 40 l0 -23.96 c0 -1 0.2 -1.2 0.52 -1.2 l17.52 0 c0.28 0 0.52 0.2 0.52 0.48 l0 4.52 c0 0.28 -0.24 0.52 -0.52 0.52 l-11.84 0 l0 4.16 l7.48 0 c0.28 0 0.52 0.24 0.52 0.52 l0 4.48 c0 0.28 -0.24 0.52 -0.52 0.52 l-7.48 0 l0 4.28 l11.8 0 c0.28 0 0.52 0.24 0.52 0.52 l0 4.48 c0 0.28 -0.24 0.52 -0.52 0.52 l-17.48 0 c-0.32 0 -0.52 -0.24 -0.52 0.16 z M94.52 40 c-0.16 0 -0.32 -0.08 -0.4 -0.24 c-0.12 -0.12 -0.12 -0.32 -0.08 -0.48 l9.32 -23.96 c0.08 -0.2 0.28 -0.32 0.48 -0.32 l5.36 0 c0.2 0 0.4 0.12 0.48 0.32 l9.16 23.96 c0.04 0.16 0.04 0.32 -0.08 0.48 c-0.08 0.16 -0.24 0.24 -0.4 0.24 l-5.56 0 c-0.2 0 -0.4 -0.12 -0.48 -0.32 l-1.48 -3.68 l-9 0.04 l-1.48 3.64 c-0.08 0.2 -0.28 0.32 -0.48 0.32 l-5.36 0 z M103.48 31 l5.76 0 l-2.88 -8.48 z M131.16 40.24 c-1.92 0 -3.84 -0.36 -5.68 -1.08 c-1.84 -0.68 -3.48 -1.68 -4.84 -2.88 c-0.16 -0.16 -0.2 -0.4 -0.12 -0.6 l1.4 -4.76 c0.08 -0.16 0.2 -0.28 0.36 -0.28 c0.16 -0.04 0.32 0 0.44 0.12 c2.12 2 4.52 3.8 7.52 3.96 c0.8 0.04 1.68 0.08 2.44 -0.16 c2.36 -0.76 1.36 -3.16 -0.4 -3.88 c-0.6 -0.24 -1.44 -0.52 -2.52 -0.84 c-1.6 -0.44 -2.92 -0.92 -3.92 -1.4 c-1.08 -0.48 -2 -1.24 -2.8 -2.24 c-0.76 -1.04 -1.16 -2.4 -1.16 -4.04 c0 -1.56 0.4 -2.92 1.2 -4.08 s1.92 -2.08 3.32 -2.68 s3.04 -0.92 4.88 -0.92 c1.64 0 3.24 0.24 4.84 0.76 c1.56 0.48 2.96 1.16 4.2 1.96 c0.2 0.16 0.28 0.4 0.16 0.64 l-1.32 4.48 c-0.04 0.16 -0.16 0.24 -0.32 0.28 c-0.12 0.04 -0.28 0.04 -0.4 -0.04 c-1.8 -1.12 -3.6 -2.48 -5.72 -2.76 c-1.4 -0.2 -3.52 -0.12 -4 1.56 c-0.6 2.16 2.56 2.72 4 3.16 c1.6 0.48 2.92 0.96 3.96 1.44 c1.08 0.52 2.04 1.32 2.8 2.32 c0.8 1.04 1.2 2.44 1.2 4.12 c0 1.64 -0.44 3.04 -1.28 4.24 c-0.8 1.2 -1.96 2.08 -3.4 2.72 c-1.44 0.56 -3.04 0.88 -4.84 0.88 z M145.20000000000002 40 c-0.28 0 -0.52 -0.24 -0.52 -0.52 l0 -23.96 c0 -0.28 0.24 -0.52 0.52 -0.52 l5.2 0 c0.28 0 0.52 0.24 0.52 0.52 l0 9.84 l9.04 0 l0 -9.84 c0 -0.28 0.24 -0.52 0.52 -0.52 l5.2 0 c0.28 0 0.52 0.24 0.52 0.52 l0 23.96 c0 0.28 -0.24 0.52 -0.52 0.52 l-5.2 0 c-0.28 0 -0.52 -0.24 -0.52 -0.52 l0 -8.6 l-9.04 0 l0 8.6 c0 0.28 -0.24 0.52 -0.52 0.52 l-5.2 0 z"/></g><g id="SvgjsG8411" featureKey="nameFeature-1" transform="matrix(1.423027110702017,0,0,1.423027110702017,129.15394577859595,25.736094269308335)" fill="#000"><path d="M2.52 40 c-0.28 0 -0.52 -0.24 -0.52 -0.52 l0 -23.96 c0 -0.28 0.24 -0.52 0.52 -0.52 l16.52 0 c0.16 0 0.28 0.04 0.36 0.16 c0.12 0.08 0.16 0.2 0.16 0.36 l-0.04 4.48 c0 0.28 -0.24 0.52 -0.52 0.52 l-10.8 0 l0 4.84 l6.8 0 c0.28 0 0.52 0.24 0.52 0.52 l0 4.52 c0 0.28 -0.24 0.52 -0.52 0.52 l-6.8 0 l0 8.56 c0 0.28 -0.2 0.52 -0.48 0.52 l-5.2 0 z M20.08 40 c-0.16 0 -0.32 -0.08 -0.4 -0.24 c-0.12 -0.12 -0.12 -0.32 -0.08 -0.48 l9.32 -23.96 c0.08 -0.2 0.28 -0.32 0.48 -0.32 l5.36 0 c0.2 0 0.4 0.12 0.48 0.32 l9.16 23.96 c0.04 0.16 0.04 0.32 -0.08 0.48 c-0.08 0.16 -0.24 0.24 -0.4 0.24 l-5.56 0 c-0.2 0 -0.4 -0.12 -0.48 -0.32 l-1.48 -3.68 l-9 0.04 l-1.48 3.64 c-0.08 0.2 -0.28 0.32 -0.48 0.32 l-5.36 0 z M29.04 31 l5.76 0 l-2.88 -8.48 z M56.72 40.24 c-1.92 0 -3.84 -0.36 -5.68 -1.08 c-1.84 -0.68 -3.48 -1.68 -4.84 -2.88 c-0.16 -0.16 -0.2 -0.4 -0.12 -0.6 l1.4 -4.76 c0.08 -0.16 0.2 -0.28 0.36 -0.28 c0.16 -0.04 0.32 0 0.44 0.12 c2.12 2 4.52 3.8 7.52 3.96 c0.8 0.04 1.68 0.08 2.44 -0.16 c2.36 -0.76 1.36 -3.16 -0.4 -3.88 c-0.6 -0.24 -1.44 -0.52 -2.52 -0.84 c-1.6 -0.44 -2.92 -0.92 -3.92 -1.4 c-1.08 -0.48 -2 -1.24 -2.8 -2.24 c-0.76 -1.04 -1.16 -2.4 -1.16 -4.04 c0 -1.56 0.4 -2.92 1.2 -4.08 s1.92 -2.08 3.32 -2.68 s3.04 -0.92 4.88 -0.92 c1.64 0 3.24 0.24 4.84 0.76 c1.56 0.48 2.96 1.16 4.2 1.96 c0.2 0.16 0.28 0.4 0.16 0.64 l-1.32 4.48 c-0.04 0.16 -0.16 0.24 -0.32 0.28 c-0.12 0.04 -0.28 0.04 -0.4 -0.04 c-1.8 -1.12 -3.6 -2.48 -5.72 -2.76 c-1.4 -0.2 -3.52 -0.12 -4 1.56 c-0.6 2.16 2.56 2.72 4 3.16 c1.6 0.48 2.92 0.96 3.96 1.44 c1.08 0.52 2.04 1.32 2.8 2.32 c0.8 1.04 1.2 2.44 1.2 4.12 c0 1.64 -0.44 3.04 -1.28 4.24 c-0.8 1.2 -1.96 2.08 -3.4 2.72 c-1.44 0.56 -3.04 0.88 -4.84 0.88 z M70.75999999999999 40 c-0.28 0 -0.52 -0.24 -0.52 -0.52 l0 -23.96 c0 -0.28 0.24 -0.52 0.52 -0.52 l5.2 0 c0.28 0 0.52 0.24 0.52 0.52 l0 9.84 l9.04 0 l0 -9.84 c0 -0.28 0.24 -0.52 0.52 -0.52 l5.2 0 c0.28 0 0.52 0.24 0.52 0.52 l0 23.96 c0 0.28 -0.24 0.52 -0.52 0.52 l-5.2 0 c-0.28 0 -0.52 -0.24 -0.52 -0.52 l0 -8.6 l-9.04 0 l0 8.6 c0 0.28 -0.24 0.52 -0.52 0.52 l-5.2 0 z M96.27999999999999 40 c-0.28 0 -0.52 -0.24 -0.52 -0.52 l0 -23.96 c0 -0.28 0.24 -0.52 0.52 -0.52 l5.2 0 c0.28 0 0.52 0.24 0.52 0.52 l0 23.96 c0 0.28 -0.24 0.52 -0.52 0.52 l-5.2 0 z M118.87999999999998 40 c-2.4 0 -4.6 -0.56 -6.52 -1.68 c-1.96 -1.12 -3.52 -2.72 -4.68 -4.64 c-1.12 -1.96 -1.68 -4.2 -1.68 -6.6 c0 -2.36 0.56 -4.56 1.68 -6.52 c1.16 -1.96 2.68 -3.52 4.64 -4.64 s4.16 -1.68 6.56 -1.68 c2.36 0 4.56 0.56 6.52 1.68 s3.52 2.68 4.64 4.64 c1.16 1.96 1.72 4.16 1.72 6.52 c0 2.4 -0.56 4.6 -1.72 6.56 c-1.12 1.96 -2.68 3.52 -4.64 4.68 c-1.96 1.12 -4.16 1.68 -6.52 1.68 z M118.95999999999998 34.24 c1.16 0 2.24 -0.32 3.2 -0.92 c1 -0.64 1.8 -1.48 2.36 -2.6 c0.6 -1.08 0.88 -2.32 0.88 -3.64 c0 -1.28 -0.28 -2.52 -0.88 -3.6 c-0.56 -1.08 -1.36 -1.92 -2.36 -2.56 c-0.96 -0.6 -2.04 -0.92 -3.2 -0.92 c-1.2 0 -2.28 0.32 -3.28 0.92 c-1.04 0.64 -1.84 1.48 -2.44 2.56 c-0.6 1.12 -0.88 2.32 -0.88 3.6 c0 1.32 0.28 2.56 0.88 3.64 c0.64 1.08 1.44 1.96 2.44 2.56 c1 0.64 2.08 0.96 3.28 0.96 z M136.28 40 c-0.28 0 -0.52 -0.24 -0.52 -0.52 l0 -23.96 c0 -0.28 0.24 -0.52 0.52 -0.52 l4.72 0 c0.16 0 0.32 0.08 0.44 0.2 l9.2 14.2 l0 -13.88 c0 -0.28 0.24 -0.52 0.52 -0.52 l4.92 0 c0.28 0 0.52 0.24 0.52 0.52 l0 23.96 c0 0.28 -0.24 0.52 -0.52 0.52 l-4.72 0 c-0.16 0 -0.32 -0.08 -0.44 -0.2 l-9.16 -14.12 l0 13.8 c0 0.28 -0.24 0.52 -0.52 0.52 l-4.96 0 z"/></g><g id="SvgjsG8412" featureKey="sloganFeature-0" transform="matrix(0.6617996727374313,0,0,0.6617996727374313,177.9602921363969,99.51893420106853)" fill="#000"><path d="M12.76 20 l-1.6 -3.72 l-7.94 0 l-1.6 3.72 l-1.56 0 l6.28 -14.58 l1.74 0 l6.3 14.58 l-1.62 0 z M10.58 14.879999999999999 l-3.4 -7.88 l-3.38 7.88 l6.78 0 z M24.080999999999996 12.4 l4.66 -6.98 l1.74 0 l-5.64 8.42 l0 6.16 l-1.56 0 l0 -6.14 l-5.64 -8.44 l1.84 0 z M44.942 5.42 l1.54 0 l0 8.88 c0 1.84 -0.5 3.28 -1.44 4.3 c-0.96 1.02 -2.32 1.54 -4.06 1.54 c-1.72 0 -3.08 -0.52 -4.02 -1.56 c-0.96 -1.04 -1.44 -2.42 -1.44 -4.18 l0 -8.98 l1.52 0 l0 8.9 c0 1.54 0.44 2.72 1.16 3.38 c0.74 0.68 1.68 1 2.86 1 c1.24 0 2.2 -0.36 2.88 -1.12 c0.66 -0.76 1 -1.8 1 -3.18 l0 -8.98 z M57.083000000000006 20.14 c-1.38 0 -2.7 -0.52 -3.56 -1.28 c-0.9 -0.78 -1.48 -1.82 -1.6 -2.84 l1.44 -0.4 c0.16 0.86 0.6 1.58 1.32 2.18 c0.7 0.6 1.5 0.9 2.4 0.9 c0.84 0 1.62 -0.2 2.24 -0.64 c0.62 -0.42 1.02 -1.14 1.02 -2.02 c0 -1.02 -0.54 -1.68 -1.22 -2.08 c-0.48 -0.28 -0.9 -0.4 -1.38 -0.5 l-1.92 -0.38 c-0.4 -0.08 -0.82 -0.22 -1.28 -0.42 c-0.46 -0.22 -0.86 -0.48 -1.2 -0.82 c-0.68 -0.66 -1.02 -1.5 -1.02 -2.52 c0 -0.8 0.22 -1.52 0.66 -2.14 c0.44 -0.64 1 -1.1 1.7 -1.44 c0.7 -0.32 1.44 -0.48 2.26 -0.48 c3.14 0 4.52 1.94 4.82 3.5 l-1.4 0.44 c-0.24 -1.04 -1.18 -2.52 -3.44 -2.52 c-1.56 -0.04 -3.08 1.06 -3.06 2.58 c0 1.12 0.7 2.02 2.12 2.3 l1.84 0.36 c1.24 0.24 2.2 0.66 2.84 1.28 c0.44 0.4 0.76 0.86 0.96 1.34 c0.2 0.5 0.3 0.94 0.3 1.34 c0.02 2.56 -2.14 4.32 -4.84 4.26 z M77.544 20 l0 -6.68 l-8.3 0 l0 6.68 l-1.54 0 l0 -14.58 l1.54 0 l0 6.46 l8.3 0 l0 -6.46 l1.54 0 l0 14.58 l-1.54 0 z M85.84499999999998 20 l0 -14.58 l1.54 0 l0 14.58 l-1.54 0 z M106.107 20.14 c-1.38 0 -2.7 -0.52 -3.56 -1.28 c-0.9 -0.78 -1.48 -1.82 -1.6 -2.84 l1.44 -0.4 c0.16 0.86 0.6 1.58 1.32 2.18 c0.7 0.6 1.5 0.9 2.4 0.9 c0.84 0 1.62 -0.2 2.24 -0.64 c0.62 -0.42 1.02 -1.14 1.02 -2.02 c0 -1.02 -0.54 -1.68 -1.22 -2.08 c-0.48 -0.28 -0.9 -0.4 -1.38 -0.5 l-1.92 -0.38 c-0.4 -0.08 -0.82 -0.22 -1.28 -0.42 c-0.46 -0.22 -0.86 -0.48 -1.2 -0.82 c-0.68 -0.66 -1.02 -1.5 -1.02 -2.52 c0 -0.8 0.22 -1.52 0.66 -2.14 c0.44 -0.64 1 -1.1 1.7 -1.44 c0.7 -0.32 1.44 -0.48 2.26 -0.48 c3.14 0 4.52 1.94 4.82 3.5 l-1.4 0.44 c-0.24 -1.04 -1.18 -2.52 -3.44 -2.52 c-1.56 -0.04 -3.08 1.06 -3.06 2.58 c0 1.12 0.7 2.02 2.12 2.3 l1.84 0.36 c1.24 0.24 2.2 0.66 2.84 1.28 c0.44 0.4 0.76 0.86 0.96 1.34 c0.2 0.5 0.3 0.94 0.3 1.34 c0.02 2.56 -2.14 4.32 -4.84 4.26 z M126.568 20 l0 -6.68 l-8.3 0 l0 6.68 l-1.54 0 l0 -14.58 l1.54 0 l0 6.46 l8.3 0 l0 -6.46 l1.54 0 l0 14.58 l-1.54 0 z M144.10899999999998 5.42 l1.54 0 l0 8.88 c0 1.84 -0.5 3.28 -1.44 4.3 c-0.96 1.02 -2.32 1.54 -4.06 1.54 c-1.72 0 -3.08 -0.52 -4.02 -1.56 c-0.96 -1.04 -1.44 -2.42 -1.44 -4.18 l0 -8.98 l1.52 0 l0 8.9 c0 1.54 0.44 2.72 1.16 3.38 c0.74 0.68 1.68 1 2.86 1 c1.24 0 2.2 -0.36 2.88 -1.12 c0.66 -0.76 1 -1.8 1 -3.18 l0 -8.98 z M153.75 20 l-1.54 0 l0 -14.58 l1.54 0 l0 6.44 l0.1 0 l6.54 -6.44 l2.12 0 l-7.14 6.98 l7.48 7.6 l-2.16 0 l-6.84 -7.02 l-0.1 0 l0 7.02 z M167.531 20 l0 -14.58 l1.54 0 l0 13.14 l6.92 0 l0 1.44 l-8.46 0 z M191.85199999999998 20 l-1.6 -3.72 l-7.94 0 l-1.6 3.72 l-1.56 0 l6.28 -14.58 l1.74 0 l6.3 14.58 l-1.62 0 z M189.672 14.879999999999999 l-3.4 -7.88 l-3.38 7.88 l6.78 0 z"/></g>
			</g>
		</svg>
	